<?xml version="1.0" standalone="no"?>
<!DOCTYPE svg PUBLIC "-//W3C//DTD SVG 20010904//EN"
 "http://www.w3.org/TR/2001/REC-SVG-20010904/DTD/svg10.dtd">
<svg version="1.0" xmlns="http://www.w3.org/2000/svg"
 width="263.000000pt" height="267.000000pt" viewBox="0 0 263.000000 267.000000"
 preserveAspectRatio="xMidYMid meet">
<metadata>
Created by potrace 1.10, written by Peter Selinger 2001-2011
</metadata>
<g transform="translate(0.000000,267.000000) scale(0.100000,-0.100000)"
fill="#000000" stroke="none">
<path d="M428 2055 c-33 -31 -31 -45 17 -102 22 -26 33 -43 26 -38 -10 6 -12
4 -7 -4 5 -7 14 -10 21 -7 7 2 16 -2 19 -10 4 -10 1 -13 -7 -9 -6 4 -4 0 6 -8
9 -8 17 -18 17 -23 0 -5 9 -15 20 -22 12 -7 18 -18 14 -24 -4 -6 -3 -8 3 -5
29 18 34 -49 34 -470 l0 -425 -28 -25 c-15 -14 -21 -22 -13 -18 8 4 2 -4 -14
-19 -16 -14 -32 -26 -36 -26 -4 0 -7 -8 -6 -17 0 -11 -6 -18 -15 -17 -12 1
-15 -4 -11 -19 3 -13 1 -18 -6 -13 -6 3 -13 -3 -17 -14 -3 -11 -11 -20 -16
-20 -5 0 -9 -6 -9 -14 0 -8 -7 -17 -16 -20 -8 -3 -12 -10 -9 -16 3 -5 2 -10
-4 -10 -14 0 8 -62 28 -77 12 -9 86 -12 271 -13 218 0 259 2 278 16 13 9 21
21 19 27 -2 7 0 20 5 31 7 13 7 16 -1 12 -6 -4 -11 -2 -11 4 0 7 -9 24 -20 40
-11 15 -16 31 -12 35 4 5 -1 5 -10 2 -12 -4 -15 -2 -11 9 3 8 -1 14 -11 14 -9
0 -16 5 -16 11 0 6 -17 26 -37 45 -22 20 -32 34 -23 34 10 0 7 5 -8 16 -12 8
-20 20 -17 25 4 5 0 9 -8 9 -8 0 -18 7 -21 16 -6 14 -10 419 -6 479 1 11 2 28
3 37 1 9 5 14 10 11 4 -2 5 -14 1 -25 -4 -14 -2 -18 5 -14 6 4 11 2 11 -3 0
-23 2 -27 22 -48 12 -13 18 -23 15 -23 -4 0 3 -19 15 -42 12 -24 21 -47 20
-52 -2 -4 2 -14 8 -20 5 -7 6 -17 2 -21 -4 -5 -2 -5 5 -1 6 3 14 2 18 -4 3 -5
1 -10 -6 -10 -8 0 -7 -6 3 -17 20 -23 50 -83 42 -83 -4 0 -1 -7 6 -15 7 -8 10
-22 6 -30 -3 -9 -2 -14 3 -11 9 6 63 -87 59 -101 -3 -14 25 -63 35 -63 6 0 8
-3 4 -6 -3 -4 4 -25 15 -48 12 -22 22 -43 23 -46 0 -3 9 -23 19 -45 10 -22 26
-57 35 -77 22 -50 69 -76 107 -60 14 7 24 16 20 19 -9 10 14 32 28 27 7 -3 13
2 13 10 0 8 -4 13 -9 10 -4 -3 -8 0 -8 5 0 6 5 11 11 11 5 0 7 4 4 10 -3 5 -1
10 6 10 7 0 9 3 6 7 -4 3 -1 13 7 22 15 17 16 19 16 52 0 11 4 17 10 14 5 -3
7 0 5 7 -3 8 2 22 11 33 8 11 12 14 8 6 -5 -10 -3 -12 5 -6 9 5 9 11 3 17 -7
7 -6 18 5 34 8 13 13 33 10 43 -3 14 -1 18 9 14 9 -3 14 2 14 16 0 12 4 21 9
21 5 0 8 11 7 25 -2 13 1 22 5 19 5 -3 9 0 9 6 0 7 7 10 14 7 10 -4 13 -1 9 8
-3 8 -8 13 -12 10 -15 -8 -5 33 14 61 11 16 20 31 20 34 4 26 18 49 27 44 7
-5 8 -2 3 6 -9 14 14 90 27 90 5 0 6 5 3 10 -3 6 -3 16 2 23 4 6 9 20 10 30 2
10 12 27 22 39 20 20 20 18 21 -256 1 -301 -2 -330 -31 -323 -11 3 -17 1 -14
-4 9 -14 -26 -59 -46 -59 -12 0 -16 -5 -13 -15 5 -11 2 -13 -12 -8 -13 5 -16
3 -11 -9 3 -10 0 -19 -9 -22 -22 -8 -17 -66 8 -87 20 -18 43 -19 362 -19 284
0 345 2 363 15 22 15 37 65 20 65 -6 0 -8 3 -5 6 3 3 -4 16 -16 29 -11 13 -27
30 -34 39 -7 9 -18 13 -24 10 -6 -4 -8 -3 -5 3 4 6 -5 18 -19 28 -14 9 -23 22
-21 28 2 7 -2 19 -9 27 -11 13 -14 112 -14 510 0 272 0 501 0 508 0 6 3 11 8
10 4 -2 7 0 7 4 0 11 39 37 47 32 4 -3 5 1 3 9 -3 7 14 31 40 55 39 36 45 46
43 76 -1 19 -6 32 -10 30 -4 -3 -8 2 -8 10 0 13 -35 15 -251 15 -249 1 -251 0
-272 -22 -44 -46 -58 -69 -53 -83 3 -8 1 -14 -5 -14 -6 0 -8 -4 -5 -8 3 -5 -6
-27 -20 -51 -13 -24 -21 -47 -18 -52 3 -5 1 -9 -5 -9 -6 0 -7 -7 -4 -17 5 -12
3 -14 -7 -8 -8 5 -11 4 -6 -3 7 -11 -9 -56 -29 -82 -18 -23 -27 -52 -13 -44
13 8 -22 -58 -37 -68 -5 -4 -6 -8 -1 -8 5 0 4 -6 -2 -12 -6 -7 -11 -16 -11
-21 0 -4 -8 -23 -16 -43 -8 -20 -15 -40 -15 -45 0 -5 -9 -28 -19 -51 -46 -101
-52 -119 -45 -130 5 -7 3 -8 -5 -4 -8 5 -11 3 -9 -7 2 -9 0 -16 -4 -16 -23 -2
-27 1 -21 16 4 10 3 14 -5 9 -7 -4 -15 8 -23 33 -7 23 -16 38 -22 34 -6 -4 -8
2 -5 15 4 12 2 22 -3 22 -5 0 -9 7 -9 15 0 8 -5 15 -12 15 -6 0 -8 3 -5 7 4 3
1 13 -5 21 -7 8 -13 28 -13 46 -1 21 -6 31 -16 30 -8 -1 -16 8 -17 20 -1 25
-33 86 -45 86 -4 0 -6 4 -2 9 3 5 1 12 -5 16 -6 4 -8 11 -5 16 4 5 2 9 -4 9
-5 0 -8 11 -7 25 2 13 -2 23 -8 22 -6 -1 -10 4 -8 12 2 7 -4 22 -13 31 -9 10
-18 25 -19 34 -1 8 -10 24 -20 35 -13 14 -14 21 -5 27 9 5 7 11 -6 21 -11 7
-15 13 -10 13 5 0 0 7 -11 16 -10 8 -13 12 -6 9 8 -4 3 10 -11 31 -13 22 -22
44 -20 50 2 6 -3 17 -12 24 -8 7 -15 9 -15 6 0 -4 -7 0 -16 8 -13 14 -52 16
-267 16 l-252 0 -27 -25z m548 -32 c6 -17 19 -46 70 -160 13 -29 36 -79 50
-110 14 -32 38 -85 54 -118 15 -33 35 -78 45 -100 10 -22 33 -74 53 -115 19
-41 48 -104 64 -140 62 -137 56 -127 63 -105 4 11 16 39 26 62 10 24 19 49 19
56 0 7 4 17 8 23 5 5 24 47 42 94 18 47 41 104 51 127 11 24 19 46 19 51 0 5
9 27 20 50 11 22 20 47 20 55 0 7 4 17 9 23 4 5 36 80 71 167 l62 157 249 0
c214 0 249 -2 249 -15 0 -8 -36 -49 -80 -91 l-80 -77 0 -531 0 -530 80 -77
c44 -42 80 -84 80 -93 0 -14 -36 -16 -355 -16 -317 0 -355 2 -355 16 0 8 36
49 80 91 l80 75 0 422 -1 421 -26 -65 c-14 -36 -34 -84 -44 -107 -10 -24 -19
-48 -19 -53 0 -6 -9 -30 -20 -52 -11 -23 -20 -45 -20 -50 0 -5 -9 -27 -19 -51
-10 -23 -42 -103 -71 -177 -29 -74 -61 -154 -71 -177 -10 -24 -19 -48 -19 -53
0 -6 -9 -30 -20 -52 -11 -23 -20 -45 -20 -50 0 -5 -9 -27 -19 -51 -11 -23 -22
-52 -26 -64 -5 -17 -14 -23 -34 -23 -29 0 -22 -13 -132 228 -16 34 -42 90 -58
125 -16 34 -40 88 -55 120 -14 31 -38 83 -52 115 -34 74 -74 160 -112 242 -28
61 -43 95 -74 165 -11 26 -13 -21 -16 -320 -1 -192 0 -360 3 -372 3 -12 15
-33 28 -45 12 -13 34 -39 48 -58 15 -19 41 -51 58 -70 17 -19 39 -47 48 -63
10 -15 21 -27 25 -27 4 0 8 -9 8 -20 0 -20 -7 -20 -270 -20 -245 0 -270 2
-270 17 0 16 25 52 70 103 12 14 34 41 49 60 14 19 33 42 42 50 51 49 50 37
50 497 0 235 -1 433 -1 440 0 7 -10 22 -23 35 -12 13 -38 43 -57 68 -19 25
-52 63 -72 85 -72 76 -74 75 227 75 244 0 266 -1 271 -17z"/>
<path d="M7 33 c-4 -3 -7 -10 -7 -15 0 -4 592 -8 1316 -8 1048 0 1315 3 1312
12 -4 10 -276 14 -1310 16 -717 1 -1308 -1 -1311 -5z"/>
</g>
</svg>
